# xmcd
#
# Track frame offsets:
#	187
#	12232
#	26532
#	40577
#	52732
#	65872
#	78397
#	89847
#	102882
#	113302
#
# Disc length: 1726 seconds
# Revision: 1
# Processed by: cddbd v1.5.2PL0 Copyright (c) Steve Scherf et al.
# Submitted via: dBpowerAMP V12.0
#
DISCID=7106bc0a
DTITLE=Johnny Paycheck - Take This Job and Shove It
DYEAR=1977
DGENRE=Country
TTITLE0=Take This Job and Shove It
TTITLE1=From Cotton to Satin (From Birmingham to Manhattan)
TTITLE2=The Spirits of St. Louis
TTITLE3=The 4-F Blues
TTITLE4=Barstool Mountain
TTITLE5=Georgia in a Jug
TTITLE6=The Fool Strikes Again
TTITLE7=The Man from Bowling Green
TTITLE8=When I Had a Home to Go to
TTITLE9=Colorado Kool-Aid
EXTD=
EXTT0=
EXTT1=
EXTT2=
EXTT3=
EXTT4=
EXTT5=
EXTT6=
EXTT7=
EXTT8=
EXTT9=
PLAYORDER=
